PathFileType	4	(X/Y/Z)	C:/Users/opensim2020/Desktop/walking_exp_matlab/subject02_walking12_straight_03.trc	
DataRate	CameraRate	NumFrames	NumMarkers	Units	OrigDataRate	OrigDataStartFrame	OrigNumFrames	
100.00	100.00	5	42	mm	100.00	1621	127	
Frame#	Time	LFHD			RFHD			LBHD			RBHD			C7			T10			CLAV			STRN			RBAK			LSHO			LUPA			LELB			LFRM			LWRA			LWRB			LFIN			RSHO			RUPA			RELB			RFRM			RWRA			RWRB			RFIN			LASI			RASI			LPSI			RPSI			LTHI			LKNE			LTIB			LANK			LHEE			LTOE			RTHI			RKNE			RTIB			RANK			RHEE			RTOE			*39			*40			*41			
		X1	Y1	Z1	X2	Y2	Z2	X3	Y3	Z3	X4	Y4	Z4	X5	Y5	Z5	X6	Y6	Z6	X7	Y7	Z7	X8	Y8	Z8	X9	Y9	Z9	X10	Y10	Z10	X11	Y11	Z11	X12	Y12	Z12	X13	Y13	Z13	X14	Y14	Z14	X15	Y15	Z15	X16	Y16	Z16	X17	Y17	Z17	X18	Y18	Z18	X19	Y19	Z19	X20	Y20	Z20	X21	Y21	Z21	X22	Y22	Z22	X23	Y23	Z23	X24	Y24	Z24	X25	Y25	Z25	X26	Y26	Z26	X27	Y27	Z27	X28	Y28	Z28	X29	Y29	Z29	X30	Y30	Z30	X31	Y31	Z31	X32	Y32	Z32	X33	Y33	Z33	X34	Y34	Z34	X35	Y35	Z35	X36	Y36	Z36	X37	Y37	Z37	X38	Y38	Z38	X39	Y39	Z39	X40	Y40	Z40	X41	Y41	Z41	X42	Y42	Z42	

96	0.950	-961.27472	601.45795	1741.60852	-828.80017	550.49347	1714.85974	-1021.04950	479.28671	1675.50366	-893.95862	416.70670	1648.32825	-956.24036	395.56183	1530.16895	-956.85724	339.03195	1253.63318	-964.05408	533.30347	1460.34912	-954.35645	583.55170	1287.67273	-892.13654	334.95203	1355.92517	-1134.13660	466.60764	1504.68542	-1217.40662	427.64969	1307.85596	-1230.12183	407.47083	1170.14490	-1253.39294	390.37271	1042.69495	-1230.98669	416.89322	903.58990	-1266.22510	375.63403	920.08759	-1271.20288	376.14902	852.61938	-770.52612	469.03943	1495.25769	-674.37170	467.06326	1310.83008	-646.11841	511.51364	1168.40527	-638.21667	590.25244	1074.21167	-667.64026	689.56232	987.99109	-635.58582	652.24615	959.05157	-635.61548	716.43921	926.84705	-1083.19556	579.14038	996.91168	-828.09521	558.83026	973.37946	-1018.46381	364.71198	1038.12500	-904.37848	350.30399	1036.25488	-1162.75159	589.13281	697.95728	-1135.24158	621.25714	500.61176	-1132.82837	603.56702	306.88022	-1114.35938	660.09076	87.53745	-1057.14478	642.57172	56.01147	-1151.68115	812.10193	75.95904	-793.83344	452.80072	666.77704	-847.06213	424.21545	460.01129	-851.01654	355.93924	283.48434	-901.50720	311.74091	96.75898	-960.11639	272.87015	45.58043	-881.10449	458.10495	39.09134	-907.88019	477.04700	1807.86877	-3360.17334	2845.06201	1034.26257			 
97	0.960	-961.29401	613.50958	1739.62524	-828.58008	562.42572	1713.35425	-1021.06372	491.20618	1673.68787	-893.82819	428.55838	1646.90613	-956.09753	407.14981	1528.49548	-957.52319	350.58600	1252.02307	-963.52948	544.91003	1458.50513	-953.40887	594.89728	1285.79663	-892.32727	346.21561	1354.27002	-1133.89868	478.69089	1502.55078	-1216.17651	436.82233	1306.02576	-1228.03650	414.10794	1168.87500	-1251.70496	393.16745	1042.46191	-1229.87610	414.74197	902.24182	-1265.38501	374.47025	920.66681	-1270.26477	371.80472	853.06866	-770.41522	479.85187	1493.86804	-673.51587	479.53693	1309.80225	-644.31787	526.68854	1168.21680	-636.46722	607.47144	1075.81152	-666.42151	708.23987	991.42310	-633.66077	671.81110	961.94238	-633.95142	736.58929	931.18048	-1082.21387	591.74121	994.91095	-826.82715	569.63824	972.25916	-1019.12463	376.70187	1035.99622	-905.34424	361.09067	1034.31055	-1161.04004	600.65338	695.35980	-1133.69324	634.91418	498.66672	-1132.52087	626.39069	304.03885	-1115.42822	693.99353	87.49090	-1058.50586	677.03540	55.06981	-1150.26807	847.25610	82.72687	-793.47205	459.25397	665.84125	-847.05042	428.41751	459.40057	-851.13641	357.82285	283.72964	-901.98444	312.29575	97.36055	-960.94946	273.61932	46.07903	-880.73975	458.31186	39.04372	-908.02185	489.28271	1806.22949	-3360.32617	2845.27417	1034.22327			 
98	0.970	-961.39252	625.59076	1737.54529	-828.69025	574.46796	1711.61523	-1021.03320	503.15247	1671.71228	-893.65149	440.65186	1645.31409	-956.02252	418.87930	1526.67615	-958.23901	362.25732	1250.27002	-963.11420	556.62830	1456.53345	-952.58899	606.39636	1283.88696	-892.61340	357.54379	1352.44128	-1133.66992	490.81808	1500.31213	-1214.93958	446.06775	1304.12756	-1226.24304	420.85522	1167.97729	-1250.28967	396.13718	1042.38293	-1228.87061	413.25574	901.19781	-1264.45630	373.82437	921.48602	-1269.22473	368.12082	853.78326	-770.22217	490.94363	1492.30920	-672.49268	492.82965	1308.77942	-642.49603	542.06555	1168.14758	-634.72339	624.45380	1077.11267	-665.03070	726.22205	994.45746	-631.77069	690.93640	964.62872	-632.28064	756.17255	934.91553	-1081.18481	604.36133	992.85883	-825.67810	579.60333	970.64343	-1019.77527	388.82773	1033.75269	-906.35919	371.95572	1032.24475	-1160.11670	611.83728	692.38501	-1132.48621	648.49042	496.56104	-1132.60266	648.99323	301.98376	-1116.51636	726.60547	88.61407	-1060.13489	709.69830	55.02000	-1147.97021	880.94159	89.81274	-793.06055	465.83344	664.94006	-847.10858	433.02344	458.86420	-851.52502	360.01428	284.09662	-902.52716	312.77478	98.00836	-961.71924	274.01227	46.99538	-880.69305	458.25131	38.97956	-908.37280	501.43463	1804.38953	-3360.31299	2845.07739	1034.23389			 
99	0.980	-961.51703	637.68396	1735.34241	-828.93073	586.50317	1709.77002	-1021.14075	515.11151	1669.69177	-893.77948	452.41071	1643.65259	-956.06610	430.49438	1524.77930	-958.96100	374.02386	1248.34314	-962.74554	568.43048	1454.45520	-951.81219	617.87482	1281.73389	-893.03290	368.93076	1350.46692	-1133.52930	502.99667	1498.03296	-1214.09558	455.22137	1302.36121	-1224.52271	427.82254	1166.80139	-1248.91077	399.53979	1042.36682	-1227.98291	412.53058	900.39514	-1263.49768	373.72208	922.21765	-1268.18384	365.30008	854.71124	-769.88013	502.21313	1490.58301	-671.86603	505.72589	1307.35767	-641.00262	556.94702	1167.71594	-632.81641	640.95868	1078.18591	-663.27130	744.47754	997.34009	-629.92462	709.51117	966.94696	-630.60724	775.42310	938.58771	-1080.09949	617.15570	990.70728	-824.62830	590.27716	969.14551	-1020.44769	400.94971	1031.37024	-907.52094	382.99802	1029.96948	-1159.29041	622.46857	689.29755	-1131.50708	662.16046	494.28024	-1133.10303	671.19720	300.39496	-1117.34644	757.88257	90.44383	-1061.59363	740.84747	55.56064	-1144.65210	913.00232	96.78687	-792.67487	472.23526	664.05920	-846.94843	437.22235	458.25748	-851.84027	362.20517	284.51746	-903.08099	313.44788	98.74377	-962.51947	274.31232	47.96489	-880.48999	458.32532	38.91214	-908.69220	513.60986	1802.69189	-3357.55371	2845.89282	1034.18860			 
100	0.990	-961.61902	649.81006	1733.06421	-828.77521	598.68207	1707.82690	-1021.05402	527.17230	1667.43494	-893.80811	463.96725	1641.43921	-956.14929	442.17783	1522.78418	-959.67700	385.96082	1246.25476	-962.54956	580.28870	1452.29919	-951.21667	629.55963	1279.65149	-893.53461	380.38898	1348.33459	-1133.47681	515.15845	1495.66272	-1213.39270	464.70050	1300.60889	-1223.15173	434.87698	1165.73254	-1247.67761	403.20999	1042.33862	-1227.26733	412.63779	899.79834	-1262.49768	374.29340	923.01788	-1267.06116	363.31802	855.76843	-769.93707	512.96613	1488.54846	-671.40588	517.89642	1305.86157	-639.72186	571.65485	1167.02014	-631.37317	657.13550	1078.85974	-661.65863	761.91272	999.66357	-628.13342	727.56421	968.94873	-628.78235	793.85565	941.62860	-1078.99744	629.93140	988.54175	-823.64142	600.44611	967.35522	-1021.10657	413.20840	1029.06885	-908.69006	394.15070	1027.69910	-1158.79468	632.96490	686.40173	-1130.71021	676.12195	492.23029	-1133.68726	692.82727	299.23557	-1117.84949	787.45190	92.57151	-1062.59424	770.01105	56.78299	-1140.23181	943.41876	103.50894	-792.10956	478.81348	663.19501	-846.84937	442.28000	457.74805	-852.11041	364.60406	285.01617	-903.61469	314.01401	99.63375	-963.30322	275.18835	48.98101	-880.27362	458.42584	38.82931	-909.07764	525.82410	1800.65332	-3360.43188	2845.09814	1034.26733			 
